<?xml version="1.0" encoding="UTF-8"?>
<svg width="200px" height="150px" viewBox="0 0 200 150" version="1.1" xmlns="http://www.w3.org/2000/svg" xmlns:xlink="http://www.w3.org/1999/xlink">
    <!-- Generator: Sketch 64 (93537) - https://sketch.com -->
    <title>插图/无搜索结果/h150px</title>
    <desc>Created with Sketch.</desc>
    <defs>
        <linearGradient x1="100%" y1="50%" x2="0%" y2="50%" id="linearGradient-1">
            <stop stop-color="#E3E9FF" stop-opacity="0" offset="0%"></stop>
            <stop stop-color="#F3F5FF" offset="100%"></stop>
        </linearGradient>
        <linearGradient x1="-1.11022302e-14%" y1="50%" x2="100%" y2="50%" id="linearGradient-2">
            <stop stop-color="#E3E9FF" stop-opacity="0" offset="0%"></stop>
            <stop stop-color="#F3F5FF" offset="100%"></stop>
        </linearGradient>
        <linearGradient x1="50%" y1="100%" x2="50%" y2="3.061617e-15%" id="linearGradient-3">
            <stop stop-color="#EEEEEE" stop-opacity="0.458531476" offset="0%"></stop>
            <stop stop-color="#D8D8D8" offset="100%"></stop>
        </linearGradient>
        <linearGradient x1="50%" y1="2.77555756e-15%" x2="50%" y2="95.5100509%" id="linearGradient-4">
            <stop stop-color="#F3F8FF" offset="0%"></stop>
            <stop stop-color="#FFFFFF" offset="100%"></stop>
        </linearGradient>
        <polygon id="path-5" points="55.1247166 0 156.854875 0 156.854875 124 55.1247166 124"></polygon>
        <mask id="mask-6" maskContentUnits="userSpaceOnUse" maskUnits="objectBoundingBox" x="0" y="0" width="101.730159" height="124" fill="white">
            <use xlink:href="#path-5"></use>
        </mask>
        <path d="M10.2883803,-1.20977033 L10.2889846,8.09283457 C10.777442,8.53031282 11.08481,9.16585916 11.08481,9.87319512 L11.08481,16.1721767 C11.08481,17.4917447 10.0150888,18.5614658 8.69552088,18.5614658 C7.37595294,18.5614658 6.30623177,17.4917447 6.30623177,16.1721767 L6.30623177,9.87319512 C6.30623177,9.16579282 6.61365737,8.53019361 7.10219456,8.09271149 L7.10266147,-1.20977033 L10.2883803,-1.20977033 Z" id="path-7"></path>
        <linearGradient x1="100%" y1="50%" x2="-2.22044605e-14%" y2="50%" id="linearGradient-9">
            <stop stop-color="#EEEEEE" stop-opacity="0" offset="0%"></stop>
            <stop stop-color="#D8D8D8" offset="100%"></stop>
        </linearGradient>
        <linearGradient x1="46.6153405%" y1="100%" x2="52.3277079%" y2="21.383632%" id="linearGradient-10">
            <stop stop-color="#5F83FF" offset="0%"></stop>
            <stop stop-color="#486BF8" offset="56.4722762%"></stop>
            <stop stop-color="#1F42EB" offset="100%"></stop>
        </linearGradient>
        <linearGradient x1="46.3859358%" y1="100%" x2="52.4854748%" y2="21.383632%" id="linearGradient-11">
            <stop stop-color="#5F83FF" offset="0%"></stop>
            <stop stop-color="#486BF8" offset="56.4722762%"></stop>
            <stop stop-color="#1F42EB" offset="100%"></stop>
        </linearGradient>
        <linearGradient x1="50%" y1="96.5543714%" x2="50%" y2="0%" id="linearGradient-12">
            <stop stop-color="#FF9898" offset="0%"></stop>
            <stop stop-color="#F93F5F" offset="100%"></stop>
        </linearGradient>
        <linearGradient x1="100%" y1="35.1501306%" x2="33.5212313%" y2="67.9186442%" id="linearGradient-13">
            <stop stop-color="#FF9292" offset="0%"></stop>
            <stop stop-color="#F43D5B" offset="100%"></stop>
        </linearGradient>
        <radialGradient cx="42.3076923%" cy="47.2972973%" fx="42.3076923%" fy="47.2972973%" r="66.2955035%" gradientTransform="translate(0.423077,0.472973),scale(0.946572,1.000000),rotate(90.000000),translate(-0.423077,-0.472973)" id="radialGradient-14">
            <stop stop-color="#6FC3FC" stop-opacity="0.1" offset="0%"></stop>
            <stop stop-color="#6FC3FC" stop-opacity="0.80321558" offset="100%"></stop>
        </radialGradient>
        <linearGradient x1="1.86615206%" y1="26.3837766%" x2="57.3197265%" y2="57.7823923%" id="linearGradient-15">
            <stop stop-color="#F6F8FC" offset="0%"></stop>
            <stop stop-color="#F8F8F8" stop-opacity="0" offset="100%"></stop>
        </linearGradient>
        <polygon id="path-16" points="19.0430839 0 38.0861678 27 0 27"></polygon>
        <linearGradient x1="1.86615206%" y1="26.4184182%" x2="57.3197265%" y2="57.7709767%" id="linearGradient-18">
            <stop stop-color="#F6F8FC" offset="0%"></stop>
            <stop stop-color="#F8F8F8" stop-opacity="0" offset="100%"></stop>
        </linearGradient>
        <linearGradient x1="100%" y1="50%" x2="-2.22044605e-14%" y2="50%" id="linearGradient-19">
            <stop stop-color="#EEEEEE" stop-opacity="0" offset="0%"></stop>
            <stop stop-color="#EAEAEA" stop-opacity="0.176594111" offset="28.1272579%"></stop>
            <stop stop-color="#D8D8D8" offset="100%"></stop>
        </linearGradient>
        <polygon id="path-20" points="19.0430839 0 38.0861678 27 0 27"></polygon>
    </defs>
    <g id="插图/无搜索结果/h150px" stroke="none" stroke-width="1" fill="none" fill-rule="evenodd">
        <g id="Group-7" transform="translate(-11.000000, 0.000000)">
            <path d="M36.5607654,63.5 L36.5607654,71.0791463 L28.5646259,71.0791463 L28.5646259,63.5 L36.5607654,63.5 Z M34.9615375,65.0956098 L30.1638538,65.0956098 L30.1638538,69.4835366 L34.9615375,69.4835366 L34.9615375,65.0956098 Z M38.1599934,65.0956098 L38.1599934,63.5 L41.3584492,63.5 L41.3584492,71.0791463 L39.7592213,71.0791463 L39.7592213,65.0956098 L38.1599934,65.0956098 Z M50.9538167,63.5 L50.9538167,71.0791463 L42.9576771,71.0791463 L42.9576771,63.5 L50.9538167,63.5 Z M49.3545888,65.0956098 L44.556905,65.0956098 L44.556905,69.4835366 L49.3545888,69.4835366 L49.3545888,65.0956098 Z M52.5530446,65.0956098 L52.5530446,63.5 L55.7515005,63.5 L55.7515005,71.0791463 L54.1522726,71.0791463 L54.1522726,65.0956098 L52.5530446,65.0956098 Z M65.346868,63.5 L65.346868,71.0791463 L57.3507284,71.0791463 L57.3507284,63.5 L65.346868,63.5 Z M63.7476401,65.0956098 L58.9499563,65.0956098 L58.9499563,69.4835366 L63.7476401,69.4835366 L63.7476401,65.0956098 Z M66.9460959,65.0956098 L66.9460959,63.5 L70.1445517,63.5 L70.1445517,71.0791463 L68.5453238,71.0791463 L68.5453238,65.0956098 L66.9460959,65.0956098 Z M79.7399193,63.5 L79.7399193,71.0791463 L71.7437797,71.0791463 L71.7437797,63.5 L79.7399193,63.5 Z M78.1406913,65.0956098 L73.3430076,65.0956098 L73.3430076,69.4835366 L78.1406913,69.4835366 L78.1406913,65.0956098 Z M81.3391472,65.0956098 L81.3391472,63.5 L84.537603,63.5 L84.537603,71.0791463 L82.9383751,71.0791463 L82.9383751,65.0956098 L81.3391472,65.0956098 Z M94.1329705,63.5 L94.1329705,71.0791463 L86.1368309,71.0791463 L86.1368309,63.5 L94.1329705,63.5 Z M92.5337426,65.0956098 L87.7360588,65.0956098 L87.7360588,69.4835366 L92.5337426,69.4835366 L92.5337426,65.0956098 Z" id="010101010" fill="#C3CDFF" opacity="0.200000003"></path>
            <path d="M151.320403,47 L151.320403,54.5791463 L143.324263,54.5791463 L143.324263,47 L151.320403,47 Z M149.721175,48.5956098 L144.923491,48.5956098 L144.923491,52.9835366 L149.721175,52.9835366 L149.721175,48.5956098 Z M152.919631,48.5956098 L152.919631,47 L156.118086,47 L156.118086,54.5791463 L154.518858,54.5791463 L154.518858,48.5956098 L152.919631,48.5956098 Z M165.713454,47 L165.713454,54.5791463 L157.717314,54.5791463 L157.717314,47 L165.713454,47 Z M164.114226,48.5956098 L159.316542,48.5956098 L159.316542,52.9835366 L164.114226,52.9835366 L164.114226,48.5956098 Z M167.312682,48.5956098 L167.312682,47 L170.511138,47 L170.511138,54.5791463 L168.91191,54.5791463 L168.91191,48.5956098 L167.312682,48.5956098 Z M180.106505,47 L180.106505,54.5791463 L172.110366,54.5791463 L172.110366,47 L180.106505,47 Z M178.507277,48.5956098 L173.709593,48.5956098 L173.709593,52.9835366 L178.507277,52.9835366 L178.507277,48.5956098 Z M181.705733,48.5956098 L181.705733,47 L184.904189,47 L184.904189,54.5791463 L183.304961,54.5791463 L183.304961,48.5956098 L181.705733,48.5956098 Z M194.499556,47 L194.499556,54.5791463 L186.503417,54.5791463 L186.503417,47 L194.499556,47 Z M192.900329,48.5956098 L188.102645,48.5956098 L188.102645,52.9835366 L192.900329,52.9835366 L192.900329,48.5956098 Z M196.098784,48.5956098 L196.098784,47 L199.29724,47 L199.29724,54.5791463 L197.698012,54.5791463 L197.698012,48.5956098 L196.098784,48.5956098 Z M208.892608,47 L208.892608,54.5791463 L200.896468,54.5791463 L200.896468,47 L208.892608,47 Z M207.29338,48.5956098 L202.495696,48.5956098 L202.495696,52.9835366 L207.29338,52.9835366 L207.29338,48.5956098 Z" id="010101010-copy-2" fill="url(#linearGradient-1)"></path>
            <path d="M7.99613959,21.5 L7.99613959,29.0791463 L0,29.0791463 L0,21.5 L7.99613959,21.5 Z M6.39691168,23.0956098 L1.59922792,23.0956098 L1.59922792,27.4835366 L6.39691168,27.4835366 L6.39691168,23.0956098 Z M9.59536751,23.0956098 L9.59536751,21.5 L12.7938234,21.5 L12.7938234,29.0791463 L11.1945954,29.0791463 L11.1945954,23.0956098 L9.59536751,23.0956098 Z M22.3891909,21.5 L22.3891909,29.0791463 L14.3930513,29.0791463 L14.3930513,21.5 L22.3891909,21.5 Z M20.7899629,23.0956098 L15.9922792,23.0956098 L15.9922792,27.4835366 L20.7899629,27.4835366 L20.7899629,23.0956098 Z M23.9884188,23.0956098 L23.9884188,21.5 L27.1868746,21.5 L27.1868746,29.0791463 L25.5876467,29.0791463 L25.5876467,23.0956098 L23.9884188,23.0956098 Z M36.7822421,21.5 L36.7822421,29.0791463 L28.7861025,29.0791463 L28.7861025,21.5 L36.7822421,21.5 Z M35.1830142,23.0956098 L30.3853305,23.0956098 L30.3853305,27.4835366 L35.1830142,27.4835366 L35.1830142,23.0956098 Z M38.3814701,23.0956098 L38.3814701,21.5 L41.5799259,21.5 L41.5799259,29.0791463 L39.980698,29.0791463 L39.980698,23.0956098 L38.3814701,23.0956098 Z M51.1752934,21.5 L51.1752934,29.0791463 L43.1791538,29.0791463 L43.1791538,21.5 L51.1752934,21.5 Z M49.5760655,23.0956098 L44.7783817,23.0956098 L44.7783817,27.4835366 L49.5760655,27.4835366 L49.5760655,23.0956098 Z M52.7745213,23.0956098 L52.7745213,21.5 L55.9729772,21.5 L55.9729772,29.0791463 L54.3737492,29.0791463 L54.3737492,23.0956098 L52.7745213,23.0956098 Z M65.5683447,21.5 L65.5683447,29.0791463 L57.5722051,29.0791463 L57.5722051,21.5 L65.5683447,21.5 Z M63.9691168,23.0956098 L59.171433,23.0956098 L59.171433,27.4835366 L63.9691168,27.4835366 L63.9691168,23.0956098 Z" id="010101010-copy-3" fill="url(#linearGradient-2)"></path>
            <polygon id="Rectangle-6" fill="url(#linearGradient-3)" opacity="0.149999991" points="54.1680066 0 157.119833 0 176.208475 124 35.0793651 124"></polygon>
            <use id="Rectangle-6" stroke="#EBEDF1" mask="url(#mask-6)" stroke-width="3" fill="url(#linearGradient-4)" stroke-dasharray="2.000000059604645" xlink:href="#path-5"></use>
            <g id="Group-6" transform="translate(57.880952, 117.500000) scale(-1, 1) translate(-57.880952, -117.500000) translate(36.081633, 85.000000)">
                <path d="M28.2296261,38.2605569 C28.2296261,38.2605569 28.2312788,34.1737164 28.7033943,32.4237666 C29.0181379,31.2571333 29.7012168,29.9688607 30.7526309,28.5589486 L31.83972,28.1223579 L30.8308972,26.6258979 L29.9693037,27.3540006 L29.7579594,28.1561286 C26.4648549,31.4644752 25.1521751,33.6185534 25.8199201,34.6183632 C26.8215377,36.118078 28.2296261,38.2605569 28.2296261,38.2605569 Z" id="Path-3" fill="#DBB895" transform="translate(28.745391, 32.443227) rotate(10.000000) translate(-28.745391, -32.443227) "></path>
                <path d="M18.5419501,1.5 C26.0147009,1.5 32.0725624,7.54415588 32.0725624,15 C32.0725624,22.4558441 26.0147009,28.5 18.5419501,28.5 C11.0691993,28.5 5.01133787,22.4558441 5.01133787,15 C5.01133787,7.54415588 11.0691993,1.5 18.5419501,1.5 Z M18.5419501,5.5 C15.2328381,5.5 12.2804472,7.02384947 10.3512434,9.40659036 C9.81701248,10.6644843 9.52154195,12.0478148 9.52154195,13.5 C9.52154195,19.2989899 14.233212,24 20.0453515,24 C23.3544635,24 26.3068544,22.4761505 28.2360582,20.0934096 C28.7702891,18.8355157 29.0657596,17.4521852 29.0657596,16 C29.0657596,10.2010101 24.3540896,5.5 18.5419501,5.5 Z" id="Combined-Shape" fill="#445FDD"></path>
                <g id="Path-7" transform="translate(26.058957, 20.500000)">
                    <mask id="mask-8" fill="white">
                        <use xlink:href="#path-7"></use>
                    </mask>
                    <use id="Mask" fill="#6F88FC" transform="translate(8.695521, 8.675848) rotate(-45.000000) translate(-8.695521, -8.675848) " xlink:href="#path-7"></use>
                    <path d="M4.70530082,0.341461958 C5.58806426,5.22050238 6.49520287,8.31316204 7.42671662,9.61944094 C11.4209073,15.2205682 15.576006,16.6860038 15.7564115,17.3710906 C16.1216953,18.7582495 5.84891213,12.6593113 4.70530082,11.3187949 C3.94289327,10.4251173 1.55441655,7.87337775 -2.46012936,3.66357614 L4.70530082,0.341461958 Z" fill="#556DDF" mask="url(#mask-8)"></path>
                </g>
                <g id="Group-4" transform="translate(0.000000, 28.500000)">
                    <path d="M15.0340136,36.5 C6.73095716,36.5 0,35.9403559 0,35.25 C0,34.5596441 6.73095716,34 15.0340136,34 C23.33707,34 30.0680272,34.5596441 30.0680272,35.25 C30.0680272,35.9403559 23.33707,36.5 15.0340136,36.5 Z" id="Oval-7" fill="url(#linearGradient-9)" transform="translate(15.034014, 35.250000) scale(-1, 1) translate(-15.034014, -35.250000) "></path>
                    <path d="M21.7464657,33.6106629 L21.5487528,34.0530515 L21.5487528,35 L26.0589569,35 L26.0589569,34.25254 C24.9236974,34.2419438 24.2317481,34.1094921 23.9831092,33.8551849 C23.8840685,33.7538864 23.7445063,33.5679178 23.4877789,33.5214548 C23.2292588,33.4746674 22.6488211,33.5044034 21.7464657,33.6106629 Z" id="Path-13-Copy" fill="#4C555E"></path>
                    <path d="M26.2566698,33.6106629 L26.0589569,34.0530515 L26.0589569,35 L30.569161,35 L30.569161,34.25254 C29.4339014,34.2419438 28.7419522,34.1094921 28.4933133,33.8551849 C28.3942726,33.7538864 28.2547104,33.5679178 27.9979829,33.5214548 C27.7394629,33.4746674 27.1590252,33.5044034 26.2566698,33.6106629 Z" id="Path-13" fill="#545C65"></path>
                    <path d="M20.557522,18 C20.5033429,19.749601 20.6486368,21.0598804 20.9934035,21.9308383 C21.5105536,23.2372752 22.6238114,25.7369508 22.6238114,26.230143 C22.6238114,26.5589378 22.5611845,28.9822235 22.4359308,33.5 L23.9288093,33.4128768 L25.5578231,26.38537 L24.2749671,18.4399891 L20.557522,18 Z" id="Path-10" fill="url(#linearGradient-10)"></path>
                    <path d="M23.0521542,19.8845313 C23.0521542,19.8845313 23.9903511,22.3534861 25.8667451,27.2913959 L26.2350294,33.5 L27.5821673,33.5 C28.2371397,28.9329281 28.5646259,26.5549059 28.5646259,26.3659334 C28.5646259,26.1769609 28.4093403,23.0549831 28.0987691,17 C24.7343592,18.9230208 23.0521542,19.8845313 23.0521542,19.8845313 Z" id="Path-9" fill="url(#linearGradient-11)"></path>
                    <path d="M38.6066941,4.71782862 L39.2699186,4.01171806 L39.5895692,2 L39.1713709,2 L38.4085074,3.33661524 L38.0290902,2.77108498 L37.623819,2.77108498 L37.623819,4.226405 C36.0243882,6.03743527 35.0279382,7.00828067 34.634469,7.13894121 C34.2409998,7.26960174 33.3870309,7.38722089 32.0725624,7.49179865 L33.2097352,10 C34.8161897,9.3093305 35.6797139,8.90646565 35.8003079,8.79140545 C35.9209019,8.67634525 36.856364,7.31848631 38.6066941,4.71782862 Z" id="Path-11" fill="#F6D3B1"></path>
                    <path d="M27.5270571,8.16566046 C26.8910798,7.03414704 26.2313252,6.47912684 25.5477934,6.50059987 C24.2825631,6.54034684 22.3547634,9.26879571 21.8333754,11.2474931 C20.8187483,15.0980613 20.3836763,17.2102088 20.6012123,18.9401742 C20.8187483,20.6701396 27.0832297,19.8574593 28.351909,19.444838 C28.9034353,19.2654613 28.2264221,17.3303823 28.351909,15.4940135 C28.4671184,13.8080438 28.8190836,12.009391 28.81285,11.2474931 C29.3973371,11.0596436 28.9687395,10.032366 27.5270571,8.16566046 Z" id="Path-8" fill="url(#linearGradient-12)"></path>
                    <g id="Group-3" transform="translate(26.560091, 4.500000) rotate(-370.000000) translate(-26.560091, -4.500000) translate(23.553288, 0.500000)">
                        <path d="M1.28301408,5.05263158 C1.3016471,5.41208736 1.2787934,5.65658232 1.21445297,5.78611646 C1.07502764,6.06681618 0.454765506,6.48551129 0.311421424,6.75424448 C0.228467911,6.90976093 1.13872054,7.45430046 1.60893459,7.65190538 C1.95125274,7.79576273 2.83149712,7.74655729 3.04716819,7.69497813 C3.55908873,7.57254897 3.20628297,6.38021158 3.2072553,5.806815 C3.20790352,5.42455061 2.87218872,5.18895954 2.20011091,5.10004179 L1.28301408,5.05263158 Z" id="Path-4" fill="#E3B68F"></path>
                        <path d="M3.20880697,6.72752266 C1.97276944,6.85466315 0.595476647,5.66652899 0.421229448,4.04405548 C0.246982249,2.42158197 1.21251269,0.992461838 2.57780204,0.852026325 C3.5932577,0.747575179 4.58812497,1.48133426 5.08011127,2.41886528 C5.24960502,2.74185322 5.17192111,2.85780669 5.21619765,3.13270642 C5.24189673,3.2922643 5.32179309,3.39031848 5.53922108,4.10720131 C5.55065577,4.14490267 5.62291063,4.54750635 5.61147594,4.74774824 L5.00479191,4.76724829 C4.09868978,4.76724829 4.02163659,6.6439139 3.20880697,6.72752266 Z" id="Oval-5" fill="#F6D3B1"></path>
                        <path d="M4.26976572,2.7024724 C3.81616849,2.81109552 3.21996471,2.94242773 2.84083295,3.30170872 C2.4617012,3.66098971 2.96576249,5.15699891 3.36303943,5.15699891 C3.76031637,5.15699891 3.93549182,5.07516795 4.12072458,4.79865926 C4.24421308,4.61432013 4.58897724,4.52457618 5.15501705,4.52942742 C5.15501705,4.88220608 5.15501705,5.21176337 5.15501705,5.51809931 C5.15501705,5.97760321 5.31889487,7.40419663 4.01451546,7.57116298 C2.71013605,7.73812933 2.09612785,5.16884434 2.09612785,4.69749501 C2.09612785,4.22614568 1.97878266,3.46320237 1.38679312,3.30170872 C0.794803577,3.14021507 0.863497458,4.08322256 1.14293068,4.88049022 C1.29369583,5.31064729 1.38679312,5.55841296 1.38679312,6.01552262 C1.38679312,6.47263228 0.822986891,5.69835555 0.725552368,5.29753016 C0.628117845,4.89670477 0,3.74417041 0,2.62843961 C0,1.51270881 1.65202227,0 2.84083295,0 C4.02964363,0 5.07409873,0.710324837 5.83408842,1.79904298 C6.5940781,2.88776112 4.72336296,2.59384929 4.26976572,2.7024724 Z" id="Path-18" fill="#303D4C"></path>
                    </g>
                    <path d="M31.905767,7.56433911 C30.5665152,8.11016224 29.8870871,7.56433911 28.1085194,7.56433911 C23.8138186,7.56433911 27.5071336,11.4779933 28.1085194,11.8880329 C28.7099052,12.2980724 30.8818987,11.5327551 33.3619688,10.3928499 C33.9617789,10.1171614 33.2450187,7.01851598 31.905767,7.56433911 Z" id="Path-8" fill="url(#linearGradient-13)"></path>
                </g>
                <path d="M20.0453515,0 C27.5181023,0 33.5759637,6.04415588 33.5759637,13.5 C33.5759637,20.9558441 27.5181023,27 20.0453515,27 C12.5726007,27 6.51473923,20.9558441 6.51473923,13.5 C6.51473923,6.04415588 12.5726007,0 20.0453515,0 Z M18.5419501,5.5 C15.2328381,5.5 12.2804472,7.02384947 10.3512434,9.40659036 C9.81701248,10.6644843 9.52154195,12.0478148 9.52154195,13.5 C9.52154195,19.2989899 14.233212,24 20.0453515,24 C23.3544635,24 26.3068544,22.4761505 28.2360582,20.0934096 C28.7702891,18.8355157 29.0657596,17.4521852 29.0657596,16 C29.0657596,10.2010101 24.3540896,5.5 18.5419501,5.5 Z" id="Combined-Shape" fill="#617DFD"></path>
                <path d="M20.2179176,3 C26.0300571,3 30.7417271,7.70101013 30.7417271,13.5 C30.7417271,15.9967422 29.8683183,18.2899504 28.409715,20.0920622 C28.9431657,18.8340618 29.2383257,17.4514221 29.2383257,16 C29.2383257,10.2010101 24.5266557,5.5 18.7145162,5.5 C15.4054042,5.5 12.4530133,7.02384947 10.5238095,9.40659036 C12.1250369,5.63985591 15.8624925,3 20.2179176,3 Z" id="Combined-Shape" fill="#445FDD"></path>
                <path d="M18.5419501,5.5 C24.3540896,5.5 29.0657596,10.2010101 29.0657596,16 C29.0657596,16.2739264 29.0552464,16.5454029 29.0346004,16.8140496 L29.034653,16.8133648 C29.0140506,17.0814457 28.9834623,17.3460385 28.9432107,17.6074533 L28.9431124,17.6080916 C28.8726021,18.0660228 28.7722583,18.5148134 28.6442054,18.9518037 C28.6035656,19.0904759 28.5602268,19.2276899 28.5141731,19.3636561 L28.5893529,19.1328717 C28.5592827,19.2289739 28.5278657,19.3244828 28.4951239,19.4193765 L28.5141731,19.3636561 C28.4755785,19.4776006 28.4350771,19.5906686 28.3927069,19.7028225 L28.4951239,19.4193765 C28.4549993,19.5356671 28.412885,19.6510339 28.3688217,19.7654362 L28.3927069,19.7028225 C28.3454644,19.8278732 28.2958985,19.9517874 28.2440618,20.0745127 L28.2440411,20.0745616 L28.2355497,20.0946066 L28.2355497,20.0946066 C26.3068544,22.4761505 23.3544635,24 20.0453515,24 C14.233212,24 9.52154195,19.2989899 9.52154195,13.5 C9.52154195,12.0485779 9.81670203,10.6659382 10.3504014,9.40857349 C10.425599,9.31472348 10.5026109,9.2228231 10.5811487,9.13227645 C10.7109732,8.98261838 10.844541,8.83709698 10.9820731,8.6954296 L11.1947375,8.48251637 C11.2679537,8.41127076 11.3422068,8.34108101 11.4174721,8.27197177 L11.2724362,8.40767645 C11.3373659,8.34577076 11.4030885,8.28468591 11.4695871,8.22443857 L11.4174721,8.27197177 C11.4909328,8.20451957 11.5653576,8.13809668 11.6407238,8.07272604 L11.4695871,8.22443857 C11.552396,8.1494143 11.6364083,8.07568877 11.7215917,8.00329424 L11.6407238,8.07272604 C11.7161273,8.00732296 11.7924731,7.94297317 11.869738,7.87969963 L11.7215917,8.00329424 C11.7963271,7.93977917 11.871964,7.87728862 11.9484805,7.81584434 L11.869738,7.87969963 C11.9425791,7.82004882 12.0162371,7.76135455 12.0906928,7.70363606 L11.9484805,7.81584434 C12.027129,7.75268807 12.1067068,7.6906372 12.1871903,7.62971537 L12.1869016,7.6299339 C12.4446485,7.43483292 12.7113742,7.2515039 12.9865917,7.08050229 L12.9266856,7.11800308 C13.0069216,7.06740052 13.0878907,7.0178504 13.1695734,6.96937213 L12.9865917,7.08050229 C13.0794809,7.02278725 13.1733374,6.96647647 13.2681314,6.91159971 L13.1695734,6.96937213 C13.2414618,6.92670676 13.313903,6.88487162 13.3868836,6.84387995 L13.3868479,6.84390001 L13.5403517,6.75935495 L13.5403517,6.75935495 L13.7856581,6.6310476 C13.9127451,6.56669416 14.0413173,6.50483917 14.1713099,6.44554741 L14.0469616,6.50324993 C14.1292426,6.46441252 14.2121093,6.42660827 14.2955448,6.38985394 L14.1713099,6.44554741 C14.2662133,6.40226043 14.3618738,6.36033965 14.458266,6.31981028 L14.2955448,6.38985394 C14.3864781,6.34979669 14.4780871,6.31098655 14.57035,6.27344526 L14.458266,6.31981028 C14.544024,6.28375221 14.6303612,6.24879547 14.7172599,6.21495784 L14.57035,6.27344526 C14.6817739,6.22810744 14.7941514,6.18462021 14.9074441,6.14302185 L14.7172599,6.21495784 C14.8038525,6.18123938 14.8910026,6.14863215 14.9786925,6.11715371 L14.9786968,6.11715218 C15.2096713,6.03423826 15.4443958,5.95915457 15.6825443,5.8922237 L15.5600448,5.92745857 C15.6468884,5.90190553 15.7341994,5.87744011 15.8219618,5.85407811 L15.6825443,5.8922237 C15.7826322,5.86409434 15.8833247,5.83740502 15.9845982,5.81217958 L15.8219618,5.85407811 C15.9357742,5.82378171 16.0503459,5.79534099 16.1656424,5.76879042 L15.9845982,5.81217958 C16.0717089,5.79048184 16.1592493,5.76986717 16.2472043,5.75035073 L16.1656424,5.76879042 C16.2582184,5.74747191 16.3512618,5.72737201 16.4447544,5.70850856 L16.2472043,5.75035073 C16.3573375,5.72591314 16.4681207,5.70319746 16.5795241,5.68223346 L16.4447544,5.70850856 C16.534698,5.69036118 16.6250575,5.67335815 16.7158169,5.65751537 L16.7152153,5.65762041 C16.8729432,5.63008773 17.0312682,5.60613755 17.1907094,5.58574726 L16.930347,5.62234903 C17.0220898,5.60828216 17.1142231,5.59539739 17.2067309,5.5837108 L17.1907094,5.58574726 C17.2935424,5.57259637 17.3968397,5.56092629 17.5005791,5.55075915 L17.2067309,5.5837108 C17.3252067,5.56874365 17.4442967,5.55574179 17.5639671,5.54473899 L17.5005791,5.55075915 C17.5982142,5.54119027 17.6962409,5.53295266 17.7946407,5.52606474 L17.5639671,5.54473899 C17.6848824,5.53362172 17.8063901,5.52454533 17.9284554,5.51754464 L17.7946407,5.52606474 C17.9042193,5.51839432 18.0142607,5.51239768 18.1247393,5.50810029 L17.9284554,5.51754464 C18.023596,5.51208814 18.1190752,5.50789263 18.2148767,5.50497462 L18.2148795,5.50497454 L18.5419501,5.5 L18.5419501,5.5 Z" id="Combined-Shape" fill="url(#radialGradient-14)"></path>
            </g>
            <path d="M61.2499144,120.194051 C61.6392874,120.194051 61.9549366,120.508986 61.9549366,120.897478 C61.9549366,121.28597 61.6392874,121.600905 61.2499144,121.600905 C60.8605414,121.600905 60.5448922,121.28597 60.5448922,120.897478 C60.5448922,120.508986 60.8605414,120.194051 61.2499144,120.194051 Z M61.4549366,115.621775 C61.731079,115.621775 61.9549366,115.845632 61.9549366,116.121775 L61.9549366,118.08377 L61.6024255,119.490624 L60.8974033,119.490624 L60.5448922,118.08377 L60.5448922,116.121775 C60.5448922,115.845632 60.7687499,115.621775 61.0448922,115.621775 L61.4549366,115.621775 Z" id="Combined-Shape" fill="#B4C1FD" transform="translate(61.249914, 118.611340) rotate(-315.000000) translate(-61.249914, -118.611340) "></path>
            <path d="M64.9285616,120.961564 C65.2331348,120.961564 65.4800401,121.20791 65.4800401,121.511794 C65.4800401,121.815679 65.2331348,122.062025 64.9285616,122.062025 C64.6239884,122.062025 64.3770831,121.815679 64.3770831,121.511794 C64.3770831,121.20791 64.6239884,120.961564 64.9285616,120.961564 Z M64.9800401,117.385063 C65.2561825,117.385063 65.4800401,117.608921 65.4800401,117.885063 L65.4800401,119.310871 L65.2043009,120.411333 L64.6528223,120.411333 L64.3770831,119.310871 L64.3770831,117.885063 C64.3770831,117.608921 64.6009407,117.385063 64.8770831,117.385063 L64.9800401,117.385063 Z" id="Combined-Shape-Copy" fill="#B4C1FD" transform="translate(64.928562, 119.723544) rotate(-299.000000) translate(-64.928562, -119.723544) "></path>
            <path d="M87.9568718,67.0015434 L164.119495,67.0443491 C164.395418,67.0445042 164.619059,67.2681453 164.619214,67.5440683 L164.648414,119.551835 C164.648569,119.827978 164.424837,120.051961 164.148695,120.052116 C164.148507,120.052116 164.14832,120.052116 164.148133,120.052116 L87.98551,120.00931 C87.709587,120.009155 87.485946,119.785514 87.4857911,119.509591 L87.4565909,67.5018241 C87.4564358,67.2256818 87.6801677,67.0016985 87.9563101,67.0015434 C87.9564973,67.0015433 87.9566846,67.0015433 87.9568718,67.0015434 Z" id="Rectangle-10-Copy" fill="url(#linearGradient-15)" transform="translate(126.052502, 93.526830) rotate(-15.000000) translate(-126.052502, -93.526830) "></path>
            <g id="Group-5" transform="translate(123.278912, 97.500000) rotate(-15.000000) translate(-123.278912, -97.500000) translate(84.691610, 71.000000)">
                <rect id="Rectangle-10" stroke="#EBEDF1" fill="#FFFFFF" x="0.5" y="0.5" width="76.1746032" height="52" rx="0.5"></rect>
                <g id="Triangle" transform="translate(31.571429, 19.000000)">
                    <mask id="mask-17" fill="white">
                        <use xlink:href="#path-16"></use>
                    </mask>
                    <use id="Mask" fill="#EEF3FF" xlink:href="#path-16"></use>
                    <polygon fill="#FFFFFF" mask="url(#mask-17)" points="2.55456004 -11.440678 26.4745313 27 -21.3654112 27"></polygon>
                </g>
                <ellipse id="Oval" fill="#EEF3FF" cx="62.6417234" cy="11.5" rx="5.51247166" ry="5.5"></ellipse>
                <polygon id="Triangle" fill="#EEF3FF" points="31.3208617 7.5 55.1247166 46 7.5170068 46"></polygon>
            </g>
            <rect id="Rectangle-10" fill="url(#linearGradient-18)" x="108.746032" y="77.5" width="77.1746032" height="53" rx="0.5"></rect>
            <rect id="Rectangle-11" fill="url(#linearGradient-19)" x="137.310658" y="125.5" width="83.6893424" height="8"></rect>
            <g id="Group-5" transform="translate(103.734694, 80.500000)">
                <rect id="Rectangle-10" stroke="#EBEDF1" fill="#FFFFFF" x="0.5" y="0.5" width="76.1746032" height="52" rx="0.5"></rect>
                <g id="Triangle" transform="translate(31.571429, 19.000000)">
                    <mask id="mask-21" fill="white">
                        <use xlink:href="#path-20"></use>
                    </mask>
                    <use id="Mask" fill="#EEF3FF" xlink:href="#path-20"></use>
                    <polygon fill="#FFFFFF" mask="url(#mask-21)" points="2.55456004 -11.440678 26.4745313 27 -21.3654112 27"></polygon>
                </g>
                <ellipse id="Oval" fill="#EEF3FF" cx="62.6417234" cy="11.5" rx="5.51247166" ry="5.5"></ellipse>
                <polygon id="Triangle" fill="#EEF3FF" points="31.3208617 7.5 55.1247166 46 7.5170068 46"></polygon>
            </g>
            <rect id="Rectangle-11-Copy-3" fill="#E5EBF5" x="98.2222222" y="20" width="47.6077098" height="7"></rect>
            <rect id="Rectangle-11-Copy-5" fill="#E5EBF5" x="66.1496599" y="20" width="25.0566893" height="21.5"></rect>
            <rect id="Rectangle-11-Copy-4" fill="#E5EBF5" x="98.2222222" y="34.5" width="32.0725624" height="7"></rect>
            <path d="" id="Path-122" stroke="#979797" stroke-width="0.5"></path>
        </g>
    </g>
</svg>