<?xml version="1.0" encoding="UTF-8"?>
<svg width="16px" height="16px" viewBox="0 0 16 16" version="1.1" xmlns="http://www.w3.org/2000/svg" xmlns:xlink="http://www.w3.org/1999/xlink">
    <title>Bitmap Copy 2</title>
    <g id="DevUI" stroke="none" stroke-width="1" fill="none" fill-rule="evenodd">
        <g id="切图" transform="translate(-232.000000, -24.000000)" fill="#71757F">
            <path d="M240,24 C235.58,24 232,27.565679 232,31.9679979 C232,35.4938369 234.29,38.4718761 237.47,39.5276358 C237.87,39.5973558 238.02,39.3583159 238.02,39.1491559 C238.02,38.959916 238.01,38.3324362 238.01,37.6651163 C236,38.0336362 235.48,37.1770765 235.32,36.7288766 C235.23,36.4997967 234.84,35.7926368 234.5,35.6033969 C234.22,35.4539969 233.82,35.085477 234.49,35.075517 C235.12,35.065557 235.57,35.6531969 235.72,35.8922368 C236.44,37.0973965 237.59,36.7587566 238.05,36.5495966 C238.12,36.0316768 238.33,35.6830769 238.56,35.4838769 C236.78,35.284677 234.92,34.5974372 234.92,31.549678 C234.92,30.6831582 235.23,29.9660384 235.74,29.4082786 C235.66,29.2090786 235.38,28.3923588 235.82,27.2967591 C235.82,27.2967591 236.49,27.0875992 238.02,28.1134789 C238.66,27.9341989 239.34,27.844559 240.02,27.844559 C240.7,27.844559 241.38,27.9341989 242.02,28.1134789 C243.55,27.0776392 244.22,27.2967591 244.22,27.2967591 C244.66,28.3923588 244.38,29.2090786 244.3,29.4082786 C244.81,29.9660384 245.12,30.6731982 245.12,31.549678 C245.12,34.6073972 243.25,35.284677 241.47,35.4838769 C241.76,35.7328769 242.01,36.2109567 242.01,36.9579565 C242.01,38.0236762 242,38.880236 242,39.1491559 C242,39.3583159 242.15,39.6073158 242.55,39.5276358 C245.71,38.4718761 248,35.4838769 248,31.9679979 C248,27.565679 244.42,24 240,24 Z" id="Path"></path>
        </g>
    </g>
</svg>