<?xml version="1.0" encoding="UTF-8"?>
<svg width="16px" height="16px" viewBox="0 0 16 16" version="1.1" xmlns="http://www.w3.org/2000/svg" xmlns:xlink="http://www.w3.org/1999/xlink">
    <title>Bitmap</title>
    <g id="DevUI" stroke="none" stroke-width="1" fill="none" fill-rule="evenodd">
        <g id="切图" transform="translate(-104.000000, -50.000000)" fill="#006CFF">
            <path d="M116,50 C118.209139,50 120,51.790861 120,54 L120,62 C120,64.209139 118.209139,66 116,66 L108,66 C105.790861,66 104,64.209139 104,62 L104,54 C104,51.790861 105.790861,50 108,50 L116,50 Z M116.735882,57.4849939 L112.02946,61.1918586 L107.250701,57.4849939 L106.533439,58 L111.99018,62.366671 L117.444697,58 L116.735882,57.4849939 Z M114.563625,55.7421498 L112.028348,57.7167217 L109.418906,55.7421498 L108.701644,56.2571559 L111.989068,58.8915341 L115.272441,56.2571559 L114.563625,55.7421498 Z M112,53.6703194 L110.939141,54.5385043 L112,55.3858372 L113.075695,54.538504 L112,53.6703194 Z" id="形状结合"></path>
        </g>
    </g>
</svg>