<?xml version="1.0" encoding="UTF-8"?>
<svg width="32px" height="32px" viewBox="0 0 32 32" version="1.1" xmlns="http://www.w3.org/2000/svg" xmlns:xlink="http://www.w3.org/1999/xlink">
    <title>devui logo</title>
    <defs>
        <linearGradient x1="78.0655553%" y1="23.3211299%" x2="28.844109%" y2="52.8321593%" id="linearGradient-1">
            <stop stop-color="#1541B7" offset="0%"></stop>
            <stop stop-color="#5170FF" offset="100%"></stop>
        </linearGradient>
        <linearGradient x1="-11.5260417%" y1="19.1410744%" x2="87.1145833%" y2="79.9863016%" id="linearGradient-2">
            <stop stop-color="#89D2FF" offset="0%"></stop>
            <stop stop-color="#5170FF" offset="100%"></stop>
        </linearGradient>
        <linearGradient x1="38.2189714%" y1="20.3670665%" x2="57.1301347%" y2="50%" id="linearGradient-3">
            <stop stop-color="#1541B7" offset="0%"></stop>
            <stop stop-color="#5170FF" offset="100%"></stop>
        </linearGradient>
        <linearGradient x1="-11.5260417%" y1="20.0663125%" x2="87.1145833%" y2="79.0872273%" id="linearGradient-4">
            <stop stop-color="#89D2FF" offset="0%"></stop>
            <stop stop-color="#5170FF" offset="100%"></stop>
        </linearGradient>
    </defs>
    <g id="DevUI" stroke="none" stroke-width="1" fill="none" fill-rule="evenodd">
        <g id="切图" transform="translate(-16.000000, -16.000000)" fill-rule="nonzero">
            <g id="编组" transform="translate(16.000000, 16.000000)">
                <g id="编组-6" transform="translate(3.541650, 0.000000)">
                    <path d="M12.2333365,7.49832998 L14.1114393,11.9670341 L2.26144751,19.6743932 L2.26144751,19.6743932 C1.84690435,19.944002 1.29228676,19.826523 1.02266784,19.4119865 C0.90568345,19.2321241 0.857939844,19.0175492 0.885446912,18.8075382 L0.911029314,18.6823935 C1.31337919,17.2453236 2.18058565,15.4512168 3.81064511,13.8382768 L4.7198459,12.9440633 L4.7198459,12.9440633 L5.0861614,12.575142 L5.0861614,12.575142 L5.3984268,12.2418099 C5.44616713,12.1885314 5.49180558,12.136219 5.53541724,12.0846144 C6.40811949,11.2865182 6.78198403,10.2724297 6.38100943,9.54905235 C6.16480947,9.15901728 5.7575648,8.91522903 5.24941915,8.82305922 L5.24172992,8.81802245 L12.2333365,7.49832998 Z" id="路径" fill="url(#linearGradient-1)"></path>
                    <path d="M1.07657801,0.00102183885 C1.26130581,0.00919426132 1.4403966,0.0671102534 1.59493006,0.16865119 L13.9748828,8.30327807 L14.3070808,8.53075967 C15.2426736,9.17143218 15.4817537,10.4492477 14.8410811,11.3848404 C14.6901652,11.6052274 14.4976961,11.7940492 14.2744625,11.9407217 L12.4454383,13.1424561 L11.1417969,13.8971262 L11.1277157,13.8784461 C12.1368887,13.0733991 12.6672993,12.1635278 12.4889125,11.3242839 C12.2058298,9.99248443 10.2532255,9.2124466 7.6793546,9.27774129 L7.46607989,9.28541996 C6.42409869,9.26138962 5.77201108,9.11600708 5.25522079,8.92854444 L4.95934553,8.81165142 L4.95934553,8.81165142 L4.683721,8.68846424 L4.683721,8.68846424 L4.25014899,8.48586031 C1.39477525,7.1855335 0.0948902742,4.90099323 0,1.36051594 L0.00063273279,1.12217115 C0.0017784778,1.07760274 0.00344436759,1.03061219 0.00563040215,0.981199501 C0.0307153217,0.41480534 0.510182633,-0.0240356898 1.07657801,0.00102183885 Z" id="路径" fill="url(#linearGradient-2)"></path>
                    <path d="M10.2870424,17.1962304 L8.03915912,22.5447796 L22.3209798,31.8338259 C22.7962542,32.1430109 23.4321719,32.008311 23.7413136,31.5330085 C23.8983492,31.2915678 23.9467427,30.9952663 23.8746848,30.7164089 L23.8386035,30.5823291 C23.3570348,28.8623139 22.3190836,26.7149646 20.3680811,24.7844522 L19.1715644,23.6065676 C18.6281371,23.0648489 18.2294181,22.6379944 17.9425982,22.2131383 C17.1809087,21.3437517 16.8956013,20.347659 17.3026623,19.6133015 C17.5545473,19.158889 18.0319082,18.8761931 18.6296119,18.7706569 L10.2870424,17.1962304 Z" id="路径" fill="url(#linearGradient-3)"></path>
                    <path d="M23.7899261,8.06549186 C23.6149682,8.07802748 23.4461403,8.13518299 23.299548,8.23150594 L8.19004843,18.1596651 L7.29522901,18.772417 C6.35963626,19.4130895 6.12055616,20.690905 6.76122868,21.6264977 C6.91214464,21.8468847 7.10461374,22.0357065 7.32784732,22.182379 L10.0206259,23.951631 L11.4387344,24.7342465 C10.3239038,23.766293 9.75667035,22.6940095 9.9829822,21.7137452 C10.3331006,20.1972157 12.4514154,19.3021154 15.2773476,19.3112553 L15.2845818,19.3094356 C16.1315594,19.3094356 17.2509239,19.131543 18.6426755,18.7757577 L18.7830839,18.7441687 L18.9939654,18.6801464 L19.2753201,18.5836911 L19.8294892,18.378196 C23.3248582,17.0429437 24.8028786,14.087503 24.9164519,9.84993956 L24.91577,9.5676234 L24.9004218,9.21701112 C24.8966416,9.1528844 24.8922503,9.085912 24.8872479,9.01609394 C24.8467413,8.45057123 24.3554479,8.02497259 23.7899261,8.06549186 Z" id="路径" fill="url(#linearGradient-4)"></path>
                </g>
            </g>
        </g>
    </g>
</svg>