<?xml version="1.0" encoding="UTF-8"?>
<svg width="16px" height="16px" viewBox="0 0 16 16" version="1.1" xmlns="http://www.w3.org/2000/svg" xmlns:xlink="http://www.w3.org/1999/xlink">
    <title>wechat-seeklogo.com</title>
    <g id="DevUI" stroke="none" stroke-width="1" fill="none" fill-rule="evenodd">
        <g id="切图" transform="translate(-168.000000, -50.000000)" fill="#2DC100" fill-rule="nonzero">
            <g id="wechat-seeklogo.com" transform="translate(168.000000, 50.000000)">
                <path d="M13.6,0 C14.92544,0 16,1.07456 16,2.4 L16,13.6 C16,14.92544 14.92544,16 13.6,16 L2.4,16 C1.07456,16 0,14.92544 0,13.6 L0,2.4 C0,1.07456 1.07456,0 2.4,0 L13.6,0 Z M14.5524909,8.31602319 C13.2223769,6.65002606 10.4546581,6.24985381 8.56730734,7.45037057 C6.44453233,8.8013521 6.18207056,11.3285199 8.01732463,12.9765893 C8.98210246,13.8435225 10.1526292,14.1969546 11.459003,14.0669787 C11.8876466,14.0247205 12.3182686,13.7948615 12.7284475,13.8364795 C13.1399454,13.8780974 13.5263841,14.1514951 13.9477737,14.3333333 C13.9194173,14.2251268 13.9141417,14.1162799 13.8646828,14.0298427 C13.6015616,13.5637221 13.7492788,13.2730369 14.1594577,12.9196048 C15.5772789,11.6985992 15.7137854,9.76944882 14.5524909,8.31602319 Z M10.1308673,4.24002868 C8.83966089,2.60348424 6.45376466,1.91646851 4.3303302,2.59003845 C2.77468365,3.08305066 1.6298755,4.03001829 1.1643026,5.59036994 C0.660481509,7.27749616 1.33378169,8.91596143 2.9309737,10.0108327 C3.17958699,10.1817863 3.21717573,10.3271289 3.13606317,10.5896419 C3.02527529,10.9462754 2.96262738,11.316995 2.86634743,11.7408574 C3.39193043,11.4220002 3.83574142,11.135797 4.29801706,10.8822478 C4.43716137,10.806055 4.63235907,10.7868468 4.797222,10.8002925 C5.27334612,10.8393494 5.74683244,10.9078588 6.26713983,10.9706059 C6.14843852,9.61258129 6.58169828,8.51706973 7.53130873,7.62324499 C8.47102739,6.7383841 9.62770567,6.34653543 10.9584792,6.27930649 C10.8826422,5.49496887 10.5964402,4.83100307 10.1308673,4.24002868 Z M9.1548788,8.862173 C9.43580522,8.86345883 9.6613377,9.09203722 9.65078648,9.36415436 C9.6408947,9.62154515 9.41997838,9.82515279 9.15158154,9.82515279 C8.88516306,9.82451252 8.66292784,9.6177035 8.65369551,9.36095298 C8.64380374,9.0926775 8.87659018,8.86089773 9.1548788,8.862173 Z M12.2430911,8.86345883 C12.5200608,8.86537966 12.7389988,9.09139695 12.7277881,9.36543491 C12.7185558,9.6253868 12.5055529,9.82259169 12.2364966,9.82195297 C11.958208,9.82131114 11.7399294,9.5965744 11.7511401,9.32381699 C11.7616914,9.06834703 11.9826077,8.86153801 12.2430911,8.86345883 Z M8.02919476,5.15754363 C8.36353677,5.15178115 8.63457141,5.40597056 8.63720922,5.72738892 C8.64050648,6.05521003 8.38332032,6.30939944 8.0450216,6.3132411 C7.70738233,6.31708275 7.43502878,6.06545444 7.42909371,5.74467636 C7.4238181,5.43478296 7.70078781,5.16330611 8.02919476,5.15754363 Z M4.24394202,5.15754363 C4.57103006,5.16714776 4.84668087,5.44502737 4.83415129,5.75364022 C4.82162171,6.06993637 4.54135474,6.31900358 4.20701273,6.31067999 C3.87003291,6.30235641 3.61416565,6.04176424 3.62405743,5.71714451 C3.6339492,5.39636643 3.90894056,5.14793949 4.24394202,5.15754363 Z" id="形状结合"></path>
            </g>
        </g>
    </g>
</svg>