<?xml version="1.0" encoding="UTF-8"?>
<svg width="16px" height="16px" viewBox="0 0 16 16" version="1.1" xmlns="http://www.w3.org/2000/svg" xmlns:xlink="http://www.w3.org/1999/xlink">
    <title>Group 17</title>
    <g id="DevUI" stroke="none" stroke-width="1" fill="none" fill-rule="evenodd">
        <g id="切图" transform="translate(-136.000000, -50.000000)">
            <g id="Group-17" transform="translate(136.000000, 50.000000)">
                <rect id="Rectangle" x="0" y="0" width="16" height="16"></rect>
                <path d="M4.01,1.00032827 C4.01,1.00032827 3.5705,2.25332827 3.4335,2.66332827 C3.4195,2.70232827 3.4055,2.74682827 3.3915,2.79082827 L3.3915,2.79082827 L7.3775,2.79082827 C7.55858411,2.79066099 7.7324546,2.86178982 7.8615,2.98882827 C7.98986581,3.11506534 8.06257213,3.28729295 8.0635,3.46732827 L8.0635,3.46732827 L8.0635,4.11632827 L5.5105,4.11632827 L5.5105,6.86632827 C5.5075,7.11832827 5.491,7.35982827 5.491,7.59532827 L5.491,7.59532827 L7.73,7.59532827 C7.90007309,7.59410342 8.06362838,7.66067708 8.1845,7.78032827 C8.30465031,7.8989408 8.37188801,8.06099628 8.37100869,8.22982827 L8.37100869,8.22982827 L8.37100869,8.91482827 L5.3875,8.91482827 C5.28440225,9.80215386 5.09688608,10.67762 4.8275,11.5293283 C4.528,12.4858283 3.9065,13.7468283 3.2125,14.3928283 C2.065,15.4573283 0.5,14.8698283 0.5,14.8698283 C1.05626469,14.4085318 1.58172241,13.9113011 2.073,13.3813283 C2.73102158,12.6012979 3.24136106,11.707865 3.579,10.7448283 C3.77252054,10.152048 3.90291003,9.54049112 3.968,8.92032827 L3.968,8.92032827 L0.7045,8.92032827 C0.704718712,8.56826256 0.845678457,8.2308953 1.096,7.98332827 C1.3475,7.73482827 1.6875,7.59582827 2.0425,7.59582827 L2.0425,7.59582827 L4.1025,7.59582827 C4.1165,7.35682827 4.139,7.11582827 4.139,6.86582827 L4.139,6.86582827 L4.139,4.11582827 L2.972,4.11582827 L2.927,4.26582827 C2.7395,4.95632827 2.4595,5.41082827 1.9,5.70732827 C1.50810051,5.90196087 1.07752639,6.00618714 0.64,6.01232827 L0.64,6.01232827 L0.662663139,5.96625906 C0.772221453,5.74276425 1.25035294,4.75824003 1.463,4.16882827 C1.6195,3.75032827 1.852,3.04882827 2.118,2.32232827 C2.3475,1.69032827 2.5185,1.54932827 2.8035,1.34932827 C3.16147388,1.11443146 3.58190497,0.992814844 4.01,1.00032827 Z M6.135,10.3373283 L7.694,12.6188283 C7.86856748,12.9518652 7.91822647,13.3363677 7.834,13.7028283 C7.78527959,14.0887847 7.67167986,14.4637315 7.498,14.8118283 L7.498,14.8118283 L4.979,11.0828283 L6.135,10.3373283 Z M15.025,2.79082827 L15.025,13.4698283 L12.6175,13.4698283 L10.577,14.7558283 L10.3755,13.4698283 L8.8665,13.4698283 L8.8665,2.79082827 L15.025,2.79082827 Z M13.634,4.11632827 L10.244,4.11632827 L10.244,12.1363283 L11.106,12.1363283 L11.2235,12.8903283 L12.4215,12.1358283 L12.4215,12.1363283 L13.634,12.1363283 L13.634,4.11632827 Z" id="形状结合" fill="#056DE8" fill-rule="nonzero"></path>
            </g>
        </g>
    </g>
</svg>